<svg width="7" height="12" viewBox="0 0 7 12" fill="none" xmlns="http://www.w3.org/2000/svg">
<path d="M6.32005 6.64737L6.61982 4.70607H4.75787V3.44848C4.74494 3.30359 4.76476 3.15765 4.81587 3.02147C4.86698 2.88528 4.94807 2.76233 5.05313 2.66173C5.1582 2.56113 5.28455 2.48545 5.42283 2.4403C5.5611 2.39514 5.70777 2.38167 5.85196 2.40088H6.69757V0.748938C6.20153 0.668935 5.70031 0.62527 5.19791 0.618289C4.85158 0.591679 4.50363 0.64157 4.17873 0.764428C3.85383 0.887286 3.55993 1.0801 3.31785 1.32921C3.07578 1.57832 2.89146 1.87763 2.77796 2.20591C2.66446 2.5342 2.62456 2.88343 2.66108 3.22886V4.70607H0.957031V6.64577H2.66108V11.3347H4.75787V6.64737H6.32005Z" fill="white"/>
</svg>
