<svg width="10" height="11" viewBox="0 0 10 11" fill="none" xmlns="http://www.w3.org/2000/svg">
<path d="M2.58828 10.0585H0.628548V3.7353H2.59229L2.58828 10.0585ZM1.60561 2.87285C1.37952 2.87396 1.15818 2.80799 0.969588 2.68329C0.780996 2.55858 0.633625 2.38075 0.546116 2.17228C0.458607 1.96381 0.434892 1.73407 0.47797 1.51212C0.521048 1.29017 0.628984 1.08598 0.788125 0.925378C0.947266 0.764779 1.15046 0.654986 1.37201 0.609886C1.59356 0.564785 1.82351 0.586404 2.03277 0.672009C2.24203 0.757613 2.4212 0.903356 2.54762 1.0908C2.67404 1.27825 2.74202 1.49898 2.74298 1.72507C2.7432 2.02775 2.62377 2.31824 2.41072 2.53324C2.19767 2.74824 1.90828 2.87032 1.60561 2.87285ZM9.94149 10.0593H7.97855V6.98068C7.97855 6.24728 7.96412 5.30629 6.9574 5.30629C5.93626 5.30629 5.77996 6.10301 5.77996 6.92778V10.0585H3.81862V3.7353H5.70221V4.59453H5.72946C5.91819 4.27274 6.19063 4.00813 6.5178 3.82888C6.84497 3.64963 7.21462 3.56244 7.5874 3.5766C9.57439 3.5766 9.93988 4.88549 9.93988 6.58472V10.0585L9.94149 10.0593Z" fill="white"/>
</svg>
