<svg width="11" height="9" viewBox="0 0 11 9" fill="none" xmlns="http://www.w3.org/2000/svg">
<path d="M9.81024 2.58808C9.81665 2.67705 9.81665 2.76602 9.81665 2.85499C9.82187 3.62367 9.67432 4.38573 9.38256 5.09691C9.09081 5.80809 8.66066 6.45422 8.11711 6.99778C7.57355 7.54133 6.92742 7.97147 6.21624 8.26323C5.50506 8.55498 4.743 8.70254 3.97432 8.69732C2.85622 8.70059 1.76097 8.38079 0.820312 7.77636C0.985052 7.79458 1.15072 7.80315 1.31646 7.80201C2.24083 7.8043 3.13901 7.49512 3.86611 6.92434C3.43697 6.91723 3.0208 6.77609 2.67586 6.52069C2.33091 6.26529 2.07448 5.90842 1.94245 5.50003C2.07078 5.52043 2.20045 5.53115 2.33039 5.53209C2.51365 5.53266 2.69624 5.51004 2.87382 5.46476C2.40836 5.3706 1.98993 5.11803 1.68975 4.75004C1.38957 4.38205 1.22622 3.9214 1.22749 3.44652V3.42087C1.51203 3.57961 1.83006 3.66887 2.15566 3.68136C1.71983 3.39076 1.41131 2.94482 1.29305 2.43452C1.17478 1.92422 1.25568 1.38802 1.51924 0.935332C2.03506 1.57026 2.67858 2.08967 3.40807 2.45986C4.13756 2.83006 4.93672 3.04278 5.75371 3.08423C5.72087 2.92953 5.70395 2.77187 5.70321 2.61373C5.7034 2.20175 5.82741 1.79935 6.05914 1.45872C6.29087 1.1181 6.61962 0.854981 7.00274 0.703513C7.38586 0.552045 7.80566 0.519219 8.20766 0.609294C8.60967 0.69937 8.97533 0.908188 9.25718 1.20865C9.71707 1.12001 10.1581 0.95213 10.5605 0.712508C10.4074 1.18705 10.0865 1.58946 9.65795 1.84426C10.0658 1.79695 10.4643 1.68888 10.8402 1.52365C10.5591 1.93308 10.2109 2.29213 9.81024 2.58568V2.58808Z" fill="white"/>
</svg>
